<?xml version="1.0" encoding="utf-8"?>
<!-- Generator: Adobe Illustrator 21.1.0, SVG Export Plug-In . SVG Version: 6.00 Build 0)  -->
<svg version="1.1" id="Layer_1" xmlns="http://www.w3.org/2000/svg" xmlns:xlink="http://www.w3.org/1999/xlink" x="0px" y="0px"
	 viewBox="0 0 141.7 141.7" style="enable-background:new 0 0 141.7 141.7;" xml:space="preserve">
<g>
	<path class="st0" d="M93.9,71.3L93.9,71.3C89.1,58.5,74.8,52.1,62,57S42.8,76.2,47.7,89s19.2,19.2,32,14.3
		c6.6-2.5,11.8-7.7,14.3-14.3h-0.1c-1,0-1.8-0.8-1.8-1.8l0,0V73C92.1,72.1,92.9,71.3,93.9,71.3L93.9,71.3z M70.8,99.6
		c-10.8,0-19.5-8.7-19.5-19.5S60,60.6,70.8,60.6s19.5,8.7,19.5,19.5S81.6,99.6,70.8,99.6z"/>
	<path class="st0" d="M54.8,80.1c0-0.4,0-0.8,0.1-1.3c0.1,0.1,0.2,0.3,0.3,0.4c5.7,10.5,18.9,14.4,29.4,8.7c0.1,0,0.1-0.1,0.2-0.1
		c-2.7,4.9-7.9,8.2-13.9,8.2C61.9,96.1,54.8,88.9,54.8,80.1z"/>
	<path class="st0" d="M106.3,27H35.5v14.2h70.8V27z M44.3,34.1h-3.5c-1,0-1.8-0.8-1.8-1.8s0.8-1.8,1.8-1.8h3.5c1,0,1.8,0.8,1.8,1.8
		S45.3,34.1,44.3,34.1z M97.4,39.4c-2.9,0-5.3-2.4-5.3-5.3s2.4-5.3,5.3-5.3s5.3,2.4,5.3,5.3C102.7,37,100.3,39.4,97.4,39.4z"/>
	<path class="st0" d="M106.3,44.7H35.5v70.8h70.8V44.7z M102.7,87.2c0,1-0.8,1.8-1.8,1.8l0,0h-3.2c-4.9,14.9-20.9,23-35.8,18.1
		c-14.9-4.9-23-20.9-18.1-35.8c4.9-14.9,20.9-23,35.8-18.1c8.5,2.8,15.3,9.5,18.1,18.1h3.2c1,0,1.8,0.8,1.8,1.8l0,0V87.2z"/>
</g>
</svg>
