<?xml version="1.0" encoding="utf-8"?>
<!-- Generator: Adobe Illustrator 21.1.0, SVG Export Plug-In . SVG Version: 6.00 Build 0)  -->
<svg version="1.1" id="Layer_1" xmlns="http://www.w3.org/2000/svg" xmlns:xlink="http://www.w3.org/1999/xlink" x="0px" y="0px"
	 viewBox="0 0 141.7 141.7" style="enable-background:new 0 0 141.7 141.7;" xml:space="preserve">
<g transform="matrix(2.1080388,0,0,2.1080388,-51.446848,-1038.651)">
	<path class="st0" d="M74.4,517.3c2-1.7,5-1.5,6.7,0.5s1.5,5-0.5,6.7s-5,1.5-6.7-0.5S72.4,519,74.4,517.3z"/>
	<path class="st0" d="M40.5,511.5c-7.8,6.8-7.1,15-1.6,21.3c4,4.6,7.6,6.7,10.8,7.5c2.8-1.6,6.2-4,9.7-7s6.4-6,8.3-8.6
		c-0.3-3.2-1.8-7-5.9-11.7C56.4,506.7,48.3,504.8,40.5,511.5L40.5,511.5z M52.6,540.7c2.8,0.1,5.3-0.8,7.3-1.5l7.2,8.4l0.2,0.2l0,0
		c0.9,0.8,2.7,0.4,4.2-0.9c1.5-1.3,2.1-3.1,1.5-4.1l0,0l-0.2-0.2l-7.4-8.6c0.8-1.8,1.8-3.8,2.2-6.2c-1.9,2.2-4.3,4.6-7,7
		C57.8,537.1,55,539.2,52.6,540.7L52.6,540.7z"/>
</g>
</svg>
