<?xml version="1.0" encoding="utf-8"?>
<!-- Generator: Adobe Illustrator 21.1.0, SVG Export Plug-In . SVG Version: 6.00 Build 0)  -->
<svg version="1.1" id="Layer_1" xmlns="http://www.w3.org/2000/svg" xmlns:xlink="http://www.w3.org/1999/xlink" x="0px" y="0px"
	 viewBox="0 0 85 85" style="enable-background:new 0 0 85 85;" xml:space="preserve">
<path class="st0" d="M71.1,58.1c0-0.1,0.1-0.1,0.1-0.2c0,0,0,0,0,0c0-0.1,0-0.2,0.1-0.3l2.6-26c0,0,0-0.1,0-0.1c0-0.1,0-0.1,0-0.2
	c0,0,0-0.1,0-0.1c0-0.1,0-0.1,0-0.2c0,0,0-0.1,0-0.1c0,0,0-0.1-0.1-0.1c0,0,0-0.1-0.1-0.1c0,0,0-0.1,0-0.1c0,0,0,0,0,0c0,0,0,0,0,0
	c0,0,0,0-0.1-0.1c0,0-0.1-0.1-0.1-0.1c0,0-0.1-0.1-0.1-0.1c0,0-0.1-0.1-0.1-0.1c0,0-0.1,0-0.1-0.1c0,0-0.1,0-0.1-0.1
	c0,0-0.1,0-0.1,0c0,0-0.1,0-0.1,0c0,0,0,0-0.1,0L35,26.1c0,0,0,0-0.1,0c0,0-0.1,0-0.1,0c-0.2,0-0.3,0-0.5,0.1c0,0-0.1,0-0.1,0
	c-0.2,0.1-0.3,0.2-0.4,0.3c0,0,0,0,0,0c0,0,0,0,0,0c-0.1,0.1-0.2,0.3-0.3,0.4c0,0,0,0,0,0.1c-0.1,0.1-0.1,0.3-0.1,0.4l-2.6,26
	c0,0.1,0,0.2,0,0.3c0,0,0,0.1,0,0.1c0,0.1,0,0.1,0,0.2c0,0,0,0.1,0,0.1c0,0.1,0,0.1,0.1,0.2c0,0.1,0.1,0.2,0.2,0.2
	c0.1,0.1,0.1,0.2,0.2,0.2c0,0,0.1,0,0.1,0.1c0.1,0,0.1,0.1,0.2,0.1c0,0,0.1,0,0.1,0.1c0.1,0,0.1,0,0.2,0.1c0,0,0.1,0,0.1,0
	c0,0,0.1,0,0.1,0l37.4,3.7c0.1,0,0.1,0,0.1,0l0,0c0,0,0,0,0,0c0.2,0,0.3,0,0.5-0.1c0.2-0.1,0.3-0.1,0.4-0.3c0.1-0.1,0.1-0.1,0.2-0.2
	C71,58.3,71,58.2,71.1,58.1C71,58.1,71.1,58.1,71.1,58.1z M36.1,31l9.4,9.9l-11.3,9.2L36.1,31z M52.2,43.8L38.7,29.5l29.5,2.9
	L52.2,43.8z M47.5,43.2l3.4,3.6c0,0,0.1,0,0.1,0.1c0,0,0.1,0.1,0.1,0.1c0.1,0,0.1,0.1,0.2,0.1c0,0,0.1,0,0.1,0.1
	c0.1,0,0.1,0.1,0.2,0.1c0,0,0.1,0,0.1,0c0.1,0,0.2,0,0.3,0l0,0c0,0,0,0,0,0c0.2,0,0.3,0,0.5-0.1c0.1,0,0.1-0.1,0.2-0.1
	c0.1,0,0.1-0.1,0.2-0.1l4.1-2.9l9.4,11.4l-30.2-3L47.5,43.2z M59.4,42.4l11.1-7.9l-1.9,19.2L59.4,42.4z"/>
<path class="st0" d="M28.9,33.5H12.6c-0.8,0-1.5,0.7-1.5,1.5c0,0.8,0.7,1.5,1.5,1.5h16.2c0.8,0,1.5-0.7,1.5-1.5
	C30.4,34.2,29.7,33.5,28.9,33.5z"/>
<path class="st0" d="M28.9,38.5H17c-0.8,0-1.5,0.7-1.5,1.5c0,0.8,0.7,1.5,1.5,1.5h11.9c0.8,0,1.5-0.7,1.5-1.5
	C30.4,39.2,29.7,38.5,28.9,38.5z"/>
<path class="st0" d="M28.9,43.5h-8.1c-0.8,0-1.5,0.7-1.5,1.5s0.7,1.5,1.5,1.5h8.1c0.8,0,1.5-0.7,1.5-1.5S29.7,43.5,28.9,43.5z"/>
<path class="st0" d="M28.9,48.5h-4.1c-0.8,0-1.5,0.7-1.5,1.5s0.7,1.5,1.5,1.5h4.1c0.8,0,1.5-0.7,1.5-1.5S29.7,48.5,28.9,48.5z"/>
</svg>
