<?xml version="1.0" encoding="utf-8"?>
<!-- Generator: Adobe Illustrator 21.1.0, SVG Export Plug-In . SVG Version: 6.00 Build 0)  -->
<svg version="1.1" id="Layer_1" xmlns="http://www.w3.org/2000/svg" xmlns:xlink="http://www.w3.org/1999/xlink" x="0px" y="0px"
	 viewBox="0 0 141.7 141.7" style="enable-background:new 0 0 141.7 141.7;" xml:space="preserve">
<g>
	<path class="st0" d="M125.4,71.2c0-2.2-1.5-4.2-3.6-4.8L107,61.7L95.3,46.9c-1-1.2-2.5-2-4.1-2L19.9,45c-2.4,0-3.7,1.4-3.7,3.7
		c0,3.6,0,7.2,0,10.8c0,8.6,0,17,0,25.5c0,1.7,0.9,2.9,2.2,3.3c2.1,0.7,4-0.4,4.6-2.7c1.9-7.1,9.1-11.3,16.5-8.7
		c3.8,1.4,6.6,4.7,7.7,8.6c0.6,2.2,1.6,3,4,3c9.3,0,36.4,0,36.9,0c1.6,0,3.1-1,3.6-3.1c1.7-6.4,8.3-10.5,14.8-9.1
		c5,1.2,8.1,4.3,9.4,9.3c0.5,1.9,1.6,2.9,3.6,2.9c0.7,0,1.5,0,2.2,0c2.2,0,3.6-1.5,3.6-3.7C125.4,82.4,125.4,75.6,125.4,71.2z
		 M78.8,61.5c-0.7,0-1.7,0-1.7-0.6v-9.7c0-0.7,1-2.1,1.7-2.1H91c0.4,0,0.7,0.2,1,0.6l9.2,11.8L78.8,61.5L78.8,61.5z"/>
	<path class="st0" d="M35.4,79.2c-5.1,0-9.3,4.2-9.3,9.3s4.2,9.3,9.3,9.3s9.3-4.2,9.3-9.3C44.7,83.4,40.5,79.2,35.4,79.2z
		 M35.4,92.1c-2,0-3.6-1.6-3.6-3.6s1.6-3.6,3.6-3.6s3.6,1.6,3.6,3.6C39.2,90.5,37.4,92.1,35.4,92.1z"/>
	<path class="st0" d="M104.1,79.2c-5.1,0-9.3,4.2-9.3,9.3s4.1,9.3,9.3,9.3c5.1,0,9.3-4.2,9.3-9.3C113.3,83.4,109.2,79.2,104.1,79.2z
		 M104.1,92.1c-2,0-3.6-1.6-3.6-3.6s1.6-3.6,3.6-3.6s3.6,1.6,3.6,3.6S106.1,92.1,104.1,92.1z"/>
</g>
</svg>
