<?xml version="1.0" encoding="utf-8"?>
<!-- Generator: Adobe Illustrator 21.1.0, SVG Export Plug-In . SVG Version: 6.00 Build 0)  -->
<svg version="1.1" id="Layer_1" xmlns="http://www.w3.org/2000/svg" xmlns:xlink="http://www.w3.org/1999/xlink" x="0px" y="0px"
	 viewBox="0 0 141.7 141.7" style="enable-background:new 0 0 141.7 141.7;" xml:space="preserve">
<g>
	<g>
		<circle class="st0" cx="72.5" cy="73.2" r="22.8"/>
		<path class="st0" d="M72.5,41.2c-17.7,0-32,14.3-32,32s14.3,32,32,32s32-14.3,32-32S90.2,41.2,72.5,41.2z M72.5,99.5
			c-14.5,0-26.2-11.8-26.2-26.2S58,47,72.5,47s26.2,11.8,26.2,26.2S87,99.5,72.5,99.5z"/>
	</g>
	<path class="st0" d="M122,40.7c-6.8,2.1-9.8,12.9-9.8,27.5c0,8.7,5.7,3.7,5.1,10l-2.3,23.4c-0.2,2.4,1.1,4.3,4.5,4.3
		c3,0,3.9-2.1,3.9-4.3V41.8C123.4,40.5,122.7,40.4,122,40.7z"/>
	<path class="st0" d="M34.5,42c-0.1-0.9-0.6-1.4-1.4-1.4c-0.9,0-1.4,0.6-1.4,1.4v13.2c0,0.9-0.6,1.5-1.5,1.5h-0.1
		c-0.9,0-1.5-0.6-1.5-1.5V42c0-0.9-0.6-1.4-1.4-1.4s-1.4,0.6-1.4,1.4v13.2c0,0.9-0.6,1.5-1.5,1.5h-0.1c-0.9,0-1.5-0.6-1.5-1.5V42
		c0-0.9-0.6-1.4-1.4-1.4c-0.9,0-1.3,0.5-1.4,1.4l-1.4,15.7c-0.4,4.3,1.4,7.7,5.4,8.7c0.5,0.1,0.8,0.4,0.8,1l-2,34
		c-0.2,2.9,1.5,4.5,4.5,4.5s4.7-1.5,4.5-4.4l-2-34c0-0.6,0.3-0.9,0.8-1c4-1,5.8-4.4,5.4-8.7L34.5,42z"/>
</g>
</svg>
