<svg width="0" height="0" class="hidden">
  <symbol xmlns="http://www.w3.org/2000/svg" viewBox="0 0 141.7 141.7" id="autres">
    <circle cx="45" cy="70.9" r="8.6"></circle>
    <circle cx="70.7" cy="70.9" r="8.6"></circle>
    <circle cx="96" cy="70.9" r="8.6"></circle>
  </symbol>
  <symbol xmlns="http://www.w3.org/2000/svg" viewBox="0 0 141.7 141.7" id="blanchisserie">
    <path d="M93.9 71.3C89.1 58.5 74.8 52.1 62 57S42.8 76.2 47.7 89s19.2 19.2 32 14.3c6.6-2.5 11.8-7.7 14.3-14.3h-.1c-1 0-1.8-.8-1.8-1.8V73c0-.9.8-1.7 1.8-1.7zM70.8 99.6c-10.8 0-19.5-8.7-19.5-19.5S60 60.6 70.8 60.6s19.5 8.7 19.5 19.5-8.7 19.5-19.5 19.5z"></path>
    <path d="M54.8 80.1c0-.4 0-.8.1-1.3.1.1.2.3.3.4 5.7 10.5 18.9 14.4 29.4 8.7.1 0 .1-.1.2-.1-2.7 4.9-7.9 8.2-13.9 8.2-9 .1-16.1-7.1-16.1-15.9zM106.3 27H35.5v14.2h70.8V27zm-62 7.1h-3.5c-1 0-1.8-.8-1.8-1.8s.8-1.8 1.8-1.8h3.5c1 0 1.8.8 1.8 1.8s-.8 1.8-1.8 1.8zm53.1 5.3c-2.9 0-5.3-2.4-5.3-5.3s2.4-5.3 5.3-5.3 5.3 2.4 5.3 5.3-2.4 5.3-5.3 5.3z"></path>
    <path d="M106.3 44.7H35.5v70.8h70.8V44.7zm-3.6 42.5c0 1-.8 1.8-1.8 1.8h-3.2c-4.9 14.9-20.9 23-35.8 18.1-14.9-4.9-23-20.9-18.1-35.8 4.9-14.9 20.9-23 35.8-18.1 8.5 2.8 15.3 9.5 18.1 18.1h3.2c1 0 1.8.8 1.8 1.8v14.1z"></path>
  </symbol>
  <symbol xmlns="http://www.w3.org/2000/svg" viewBox="0 0 141.7 141.7" id="dons">
    <path d="M101.5 36.2c-10-4.5-26.2-.4-31.5 10.9-5.3-11.3-21.5-15.5-31.5-10.9-12 5.3-15.9 19.9-6.3 36.8C38.9 85 49 94 70 110.2 91 94 101.1 85 107.8 73c9.6-16.9 5.7-31.5-6.3-36.8z"></path>
  </symbol>
  <symbol xmlns="http://www.w3.org/2000/svg" viewBox="0 0 141.7 141.7" id="loisir">
    <path d="M105.391 51.837c4.216-3.583 10.54-3.162 14.124 1.054s3.162 10.54-1.054 14.124-10.54 3.162-14.124-1.054-3.162-10.54 1.054-14.124zM33.929 39.61c-16.443 14.336-14.967 31.621-3.373 44.902 8.432 9.697 16.021 14.124 22.767 15.81 5.902-3.372 13.07-8.432 20.448-14.756s13.491-12.648 17.496-18.129c-.632-6.746-3.794-14.756-12.437-24.664-11.383-13.28-28.459-17.286-44.901-3.162zm25.507 61.556c5.903.21 11.173-1.687 15.389-3.162l15.178 17.707.421.422c1.897 1.686 5.692.843 8.854-1.898 3.162-2.74 4.427-6.535 3.162-8.643l-.422-.421-15.6-18.13c1.687-3.794 3.795-8.01 4.639-13.07C87.05 78.61 81.992 83.67 76.3 88.729c-5.902 4.849-11.805 9.276-16.864 12.438z"></path>
  </symbol>
  <symbol xmlns="http://www.w3.org/2000/svg" viewBox="0 0 141.7 141.7" id="mobilite">
    <path d="M125.4 71.2c0-2.2-1.5-4.2-3.6-4.8L107 61.7 95.3 46.9c-1-1.2-2.5-2-4.1-2l-71.3.1c-2.4 0-3.7 1.4-3.7 3.7V85c0 1.7.9 2.9 2.2 3.3 2.1.7 4-.4 4.6-2.7 1.9-7.1 9.1-11.3 16.5-8.7 3.8 1.4 6.6 4.7 7.7 8.6.6 2.2 1.6 3 4 3h36.9c1.6 0 3.1-1 3.6-3.1 1.7-6.4 8.3-10.5 14.8-9.1 5 1.2 8.1 4.3 9.4 9.3.5 1.9 1.6 2.9 3.6 2.9h2.2c2.2 0 3.6-1.5 3.6-3.7.1-2.4.1-9.2.1-13.6zm-46.6-9.7c-.7 0-1.7 0-1.7-.6v-9.7c0-.7 1-2.1 1.7-2.1H91c.4 0 .7.2 1 .6l9.2 11.8H78.8z"></path>
    <path d="M35.4 79.2c-5.1 0-9.3 4.2-9.3 9.3s4.2 9.3 9.3 9.3 9.3-4.2 9.3-9.3c0-5.1-4.2-9.3-9.3-9.3zm0 12.9c-2 0-3.6-1.6-3.6-3.6s1.6-3.6 3.6-3.6 3.6 1.6 3.6 3.6c.2 2-1.6 3.6-3.6 3.6zm68.7-12.9c-5.1 0-9.3 4.2-9.3 9.3s4.1 9.3 9.3 9.3c5.1 0 9.3-4.2 9.3-9.3-.1-5.1-4.2-9.3-9.3-9.3zm0 12.9c-2 0-3.6-1.6-3.6-3.6s1.6-3.6 3.6-3.6 3.6 1.6 3.6 3.6-1.6 3.6-3.6 3.6z"></path>
  </symbol>
  <symbol xmlns="http://www.w3.org/2000/svg" viewBox="0 0 141.7 141.7" id="restauration">
    <circle cx="72.5" cy="73.2" r="22.8"></circle>
    <path d="M72.5 41.2c-17.7 0-32 14.3-32 32s14.3 32 32 32 32-14.3 32-32-14.3-32-32-32zm0 58.3c-14.5 0-26.2-11.8-26.2-26.2S58 47 72.5 47s26.2 11.8 26.2 26.2S87 99.5 72.5 99.5zM122 40.7c-6.8 2.1-9.8 12.9-9.8 27.5 0 8.7 5.7 3.7 5.1 10l-2.3 23.4c-.2 2.4 1.1 4.3 4.5 4.3 3 0 3.9-2.1 3.9-4.3V41.8c0-1.3-.7-1.4-1.4-1.1zM34.5 42c-.1-.9-.6-1.4-1.4-1.4-.9 0-1.4.6-1.4 1.4v13.2c0 .9-.6 1.5-1.5 1.5h-.1c-.9 0-1.5-.6-1.5-1.5V42c0-.9-.6-1.4-1.4-1.4s-1.4.6-1.4 1.4v13.2c0 .9-.6 1.5-1.5 1.5h-.1c-.9 0-1.5-.6-1.5-1.5V42c0-.9-.6-1.4-1.4-1.4-.9 0-1.3.5-1.4 1.4l-1.4 15.7c-.4 4.3 1.4 7.7 5.4 8.7.5.1.8.4.8 1l-2 34c-.2 2.9 1.5 4.5 4.5 4.5s4.7-1.5 4.5-4.4l-2-34c0-.6.3-.9.8-1 4-1 5.8-4.4 5.4-8.7L34.5 42z"></path>
  </symbol>
  <symbol xmlns="http://www.w3.org/2000/svg" viewBox="0 0 85 85" id="mail">
    <path class="st0" d="M71.1,58.1c0-0.1,0.1-0.1,0.1-0.2c0,0,0,0,0,0c0-0.1,0-0.2,0.1-0.3l2.6-26c0,0,0-0.1,0-0.1c0-0.1,0-0.1,0-0.2
	c0,0,0-0.1,0-0.1c0-0.1,0-0.1,0-0.2c0,0,0-0.1,0-0.1c0,0,0-0.1-0.1-0.1c0,0,0-0.1-0.1-0.1c0,0,0-0.1,0-0.1c0,0,0,0,0,0c0,0,0,0,0,0
	c0,0,0,0-0.1-0.1c0,0-0.1-0.1-0.1-0.1c0,0-0.1-0.1-0.1-0.1c0,0-0.1-0.1-0.1-0.1c0,0-0.1,0-0.1-0.1c0,0-0.1,0-0.1-0.1
	c0,0-0.1,0-0.1,0c0,0-0.1,0-0.1,0c0,0,0,0-0.1,0L35,26.1c0,0,0,0-0.1,0c0,0-0.1,0-0.1,0c-0.2,0-0.3,0-0.5,0.1c0,0-0.1,0-0.1,0
	c-0.2,0.1-0.3,0.2-0.4,0.3c0,0,0,0,0,0c0,0,0,0,0,0c-0.1,0.1-0.2,0.3-0.3,0.4c0,0,0,0,0,0.1c-0.1,0.1-0.1,0.3-0.1,0.4l-2.6,26
	c0,0.1,0,0.2,0,0.3c0,0,0,0.1,0,0.1c0,0.1,0,0.1,0,0.2c0,0,0,0.1,0,0.1c0,0.1,0,0.1,0.1,0.2c0,0.1,0.1,0.2,0.2,0.2
	c0.1,0.1,0.1,0.2,0.2,0.2c0,0,0.1,0,0.1,0.1c0.1,0,0.1,0.1,0.2,0.1c0,0,0.1,0,0.1,0.1c0.1,0,0.1,0,0.2,0.1c0,0,0.1,0,0.1,0
	c0,0,0.1,0,0.1,0l37.4,3.7c0.1,0,0.1,0,0.1,0l0,0c0,0,0,0,0,0c0.2,0,0.3,0,0.5-0.1c0.2-0.1,0.3-0.1,0.4-0.3c0.1-0.1,0.1-0.1,0.2-0.2
	C71,58.3,71,58.2,71.1,58.1C71,58.1,71.1,58.1,71.1,58.1z M36.1,31l9.4,9.9l-11.3,9.2L36.1,31z M52.2,43.8L38.7,29.5l29.5,2.9
	L52.2,43.8z M47.5,43.2l3.4,3.6c0,0,0.1,0,0.1,0.1c0,0,0.1,0.1,0.1,0.1c0.1,0,0.1,0.1,0.2,0.1c0,0,0.1,0,0.1,0.1
	c0.1,0,0.1,0.1,0.2,0.1c0,0,0.1,0,0.1,0c0.1,0,0.2,0,0.3,0l0,0c0,0,0,0,0,0c0.2,0,0.3,0,0.5-0.1c0.1,0,0.1-0.1,0.2-0.1
	c0.1,0,0.1-0.1,0.2-0.1l4.1-2.9l9.4,11.4l-30.2-3L47.5,43.2z M59.4,42.4l11.1-7.9l-1.9,19.2L59.4,42.4z"/>
<path class="st0" d="M28.9,33.5H12.6c-0.8,0-1.5,0.7-1.5,1.5c0,0.8,0.7,1.5,1.5,1.5h16.2c0.8,0,1.5-0.7,1.5-1.5
	C30.4,34.2,29.7,33.5,28.9,33.5z"/>
<path class="st0" d="M28.9,38.5H17c-0.8,0-1.5,0.7-1.5,1.5c0,0.8,0.7,1.5,1.5,1.5h11.9c0.8,0,1.5-0.7,1.5-1.5
	C30.4,39.2,29.7,38.5,28.9,38.5z"/>
<path class="st0" d="M28.9,43.5h-8.1c-0.8,0-1.5,0.7-1.5,1.5s0.7,1.5,1.5,1.5h8.1c0.8,0,1.5-0.7,1.5-1.5S29.7,43.5,28.9,43.5z"/>
<path class="st0" d="M28.9,48.5h-4.1c-0.8,0-1.5,0.7-1.5,1.5s0.7,1.5,1.5,1.5h4.1c0.8,0,1.5-0.7,1.5-1.5S29.7,48.5,28.9,48.5z"/>
  </symbol>
</svg>